<svg xmlns="http://www.w3.org/2000/svg" viewBox="0 0 134.77 99.23"><defs><style>.cls-1{fill:#161616;}</style></defs><title>Asset 7</title><g id="Layer_2" data-name="Layer 2"><g id="top_fill" data-name="top fill"><g id="camera2"><path id="body" d="M67.78,8.38h60.88c5.57,0,6.05.44,6.05,6,0,26.4-.05,52.8.06,79.2,0,4.23-1.64,5.6-5.71,5.6q-61.56-.11-123.13,0c-4.36,0-5.91-1.63-5.9-6q.17-39.6,0-79.2C0,9.57,1.77,8.27,6,8.3c20.6.13,41.2.06,61.79.06Zm36.53,45.44A36.81,36.81,0,1,0,67.5,90.46,37.1,37.1,0,0,0,104.31,53.82Zm4.06-32.57c-1.6-1.41-2.6-2.93-3.38-2.82-1.15.15-2.14,1.47-3.2,2.29.78,1,1.5,2.66,2.37,2.75C105.24,23.57,106.44,22.34,108.37,21.25Z"/><path id="top" class="cls-1" d="M9.86,6.19C9.25,1.41,11.11-.24,15.26,0A84.41,84.41,0,0,0,25.32,0c4.37-.25,5.83,1.71,5,6.15Z"/><path id="lens" class="cls-1" d="M67.61,21a32.9,32.9,0,1,1-33,32.55C34.66,35.25,49.17,21,67.61,21Zm26.6,32.91c.11-14.57-12-26.69-26.81-26.8C53.16,27,40.84,39.16,40.69,53.52c-.16,14.56,12.1,27,26.58,27A27.05,27.05,0,0,0,94.21,53.87ZM62.89,30.73C53.09,31,44,40.42,44.42,50.24,47.29,40,53.62,33.94,62.89,30.73Z"/></g></g>
</g>

<style type="text/css">

		#body
		{
        	animation: body 2s ease;
		}

		@keyframes body {
        0%,
	    30% {
		opacity: 0;
        transform: scaley(0.78);
	    }
	    70%,
        92.8% {
		    opacity: 1;
            transform: scaley(1);
	    }
        93%,
        100% {
		opacity: 0;
        transform: scaley(0.78);
	    }
        }

    	#lens
		{
        	animation: lens 5s linear infinite;
            transform-origin: center;
            transform-box: fill-box;
		}

		@keyframes lens{
         100% {
            transform: rotate(360deg);
        }
        }

    </style>

</svg>