<svg xmlns="http://www.w3.org/2000/svg" viewBox="0 0 151.97 151.3"><defs><style>.cls-1{fill:#161616;}</style></defs><title>Asset 2</title><g id="Layer_2" data-name="Layer 2"><g id="top_fill" data-name="top fill"><path d="M146.3,79.89c1.81,6.13,4.79,12.18,5.18,18.4.8,12.75.48,25.6,0,38.39-.11,2.85-2.68,5.64-4.25,8.39-.46.8-2,1.37-2,2,.18,5.57-3.94,4-6.75,4q-42.25.14-84.5.08-19.84,0-39.69,0c-5.59,0-13.9-7.54-14-13.17C.1,123.91-.31,109.8.38,95.75.64,90.4,3.69,85.18,5.47,79.9l-.14-.12-4,17.68c3.5.25,6.21.62,8.93.62q65.61.06,131.23,0c1.5,0,3-.06,4.48-.1,3.65-.1,4.91-1.59,3.7-5.34-1.35-4.2-2.18-8.57-3.24-12.87ZM8.91,148.7H143.53c-1.4-6.33-2.92-12.11-3.91-18-.77-4.58-2.76-6.14-7.6-6.11-32.44.26-64.88.17-97.32.17C11.67,124.79,11.67,124.78,8.91,148.7Zm141.2-49H1.72c.21,4.84,3.25,5.8,7.25,5.78,13.22,0,26.44,0,39.66,0q46.37,0,92.73,0C145.53,105.47,149.6,105.5,150.11,99.7ZM14.48,111.16v.22H137.94l0-.22"/><path d="M6.23,16.09C11,12.52,15.54,8.73,20.49,5.51c1.6-1,4.15-.81,6.27-.87C48,4,69.28,3.62,90.52,2.69,99.93,2.28,109.31-.23,118.65,0c10.65.28,18.69,7.29,26.09,14.37,1.26,1.21,1.47,3.94,1.48,6,.11,19.85.08,39.69.08,59.53l.14-.11c-2.33-1-4.65-2.82-7-2.83q-63.6-.32-127.2-.09c-2.31,0-4.62,1.91-6.93,2.92l.14.12Q5.46,50,5.5,20a18.85,18.85,0,0,1,.94-4.14q0,29.3,0,58.67h137.9c.16-1.88.38-3.33.39-4.79q0-24,0-48.07c0-8-1.68-9.65-9.84-9.65-38.87,0-77.74-.13-116.61.17C14.24,12.25,10.24,14.74,6.23,16.09Zm44.19-5.81h52.37c.69-4.74-1.49-6.16-5.76-6.12q-20.15.18-40.3,0C52.53,4.1,50.24,5.52,50.42,10.28Z"/><path d="M96.45,63.33l-3.93,3.89a39.82,39.82,0,0,0-5.89,1.55c-9.38,4-18,2.48-25.41-4.12S51,49.74,54,40c.85-2.78,1.77-5.54,2.66-8.3,12.79-12.44,25-12.79,39.63-1.15a36.25,36.25,0,0,1,2.58,28.26Z"/><path class="cls-1" d="M123.57,48.06c-16.11,0-16.11,0-16.12-16.21,0-12.76.78-13.42,13.91-13.56,19.94-.22,19.08-.24,18.93,18.65-.08,9.85-1.27,11.07-11,11.12Z"/><path class="cls-1" d="M30.75,45.4H22.43c-5.16,0-8-2.53-8.1-7.74-.11-5.51,2.65-8.24,8.23-8.18,5.76.07,11.52-.08,17.28,0,5.31.12,7.72,3.37,7.56,8.32-.16,4.69-2.69,7.51-7.69,7.53h-9Z"/><path class="cls-1" d="M96.45,63.33l2.46-4.57c5.8-9.62,4.9-19.48-2.58-28.26C81.65,18.86,69.49,19.21,56.7,31.65c-8,9.89-5.78,20.1-.94,30.39-8.09-8.84-7-19.13-3.61-29.11,3.78-11,13.76-17.23,25.15-17.24a27.12,27.12,0,0,1,24.44,16.55c3.45,8.66,3.52,17.46-.43,26C100.37,60.23,98.11,61.64,96.45,63.33Z"/><path class="cls-1" d="M128.4,61.49c.16,6.5-4.59,11.9-10.54,12-5.67.06-10.62-4.93-10.93-11s3.27-9.39,10.26-9.54C124.55,52.72,128.25,55.56,128.4,61.49Z"/><path d="M34.47,52.14l5.47.92c3.75,10.6-2,18.2-12.36,16.34-.59-1.31-1.18-2.61-1.78-3.92,4.37,1.46,8.78,2.73,11.72-2.38C40.17,58.51,38.2,55,34.47,52.14Z"/></g></g></svg>