<svg xmlns="http://www.w3.org/2000/svg" viewBox="0 0 208.01 154.05"><defs><style>.cls-1{fill:#666;}.cls-2{fill:#161616;}.cls-3{fill:#fff;}</style></defs><title>Asset 4</title><g id="Layer_2" data-name="Layer 2"><g id="top_fill" data-name="top fill"><g id="dslr"><path d="M103.93,18.4q33.07,0,66.15,0c4.64,0,9.27.31,13.91.27,5.11,0,9.06,2.23,12.44,5.78a17.26,17.26,0,0,1,4.81,10.13,2.72,2.72,0,0,0,2.14,2.61,6.51,6.51,0,0,1,3,10.54,5.8,5.8,0,0,1-5,2.28c-18.24-.1-36.48-.06-54.72,0a4.56,4.56,0,0,1-3.17-1.1A59.39,59.39,0,0,0,98.52,35.08a60.65,60.65,0,0,0-33.88,13.7A5.3,5.3,0,0,1,61.1,50c-18.2,0-36.39,0-54.59,0-1,0-2.28.18-2.84-.35A13,13,0,0,1,.35,45.25C-1,41.93,1.57,37.77,5.09,37a1.63,1.63,0,0,0,1.44-1.4c.21-1.06.33-2.15.61-3.18A18.62,18.62,0,0,1,19,19.46a14.08,14.08,0,0,1,4.73-.6q28.67-.34,57.32-.6c7.62-.06,15.25,0,22.88,0Z"/><path class="cls-1" d="M105.17,154c-6.42,0-11.8.18-16.91-1.56-21.86-7.43-36-22-40.68-44.92C41.37,77.13,62.14,47.56,91.51,40.94a59.14,59.14,0,0,1,14.73-1.06,53,53,0,0,1,25.08,6.71c16.21,9.27,26.39,22.92,29.36,41.52,4.37,27.45-11.33,52.29-35.06,62.16A46.84,46.84,0,0,1,105.17,154Zm-1.26-15.28v-.36a33.17,33.17,0,0,0,17.55-3.1c16.55-8,26.45-24.81,24.29-42.88C143.93,77.16,135.13,66.5,122,59.15c-5-2.79-10.49-3.44-16.06-3.61-3.15-.1-6.41-.41-9.45.2a40.18,40.18,0,0,0-19.76,9.75c-11.56,10.6-17,23.43-14,39,3.28,17.19,14.11,28,30.5,33.17C96.56,138.74,100.34,138.4,103.91,138.71Z"/><path class="cls-2" d="M150.92,55.78a17,17,0,0,1,2.3-.34c8.75-.1,17.5-.2,26.25-.25,6.8,0,13.6,0,20.4,0h1.48v72c-14-.17-27.92.28-41.95-.4C170.45,101.38,168.52,77.81,150.92,55.78Z"/><path class="cls-2" d="M48.83,127H6.66V55.38c2.59-.63,48.28-.17,50.21.58-.71,1-1.38,1.9-2.09,2.8A61.46,61.46,0,0,0,42.87,84.15c-.85,4-.74,8.18-.82,12.28-.13,6.2,0,12.42,1.93,18.38,1.16,3.52,2.73,6.91,4.11,10.36C48.29,125.68,48.5,126.19,48.83,127Z"/><path d="M201.34,132.47a27,27,0,0,1-1.5,4.55c-3.09,5.7-7.33,10-14.24,10.51-3.45.25-6.92.36-10.38.37-11.12.06-22.25,0-33.38,0-.36,0-.73,0-1.31-.1.37-.35.56-.57.78-.74a78.11,78.11,0,0,0,12-11.63,2.48,2.48,0,0,0,.48-.61c.93-2.29,2.76-2.54,5-2.53,13.63.07,27.27,0,40.9,0C200.12,132.39,200.58,132.43,201.34,132.47Z"/><path d="M67.21,147.9c-.21,0-.41,0-.62,0-13.86-.08-27.73-.14-41.59-.27a27.58,27.58,0,0,1-5.28-.62c-5.34-1.15-8.64-4.84-11.18-9.35-.65-1.16-1-2.47-1.56-3.7s.1-1.51,1.08-1.6c1.17-.1,2.34-.22,3.5-.22q20,.08,40,.22a1.63,1.63,0,0,1,1.17.55,71,71,0,0,0,14.12,14.27,3.59,3.59,0,0,0,.59.29Z"/><path class="cls-2" d="M78.51,13.51c.19-2.77.35-5.45.55-8.12.11-1.54,1.14-2.53,2.14-3.59A5.67,5.67,0,0,1,85.76,0c12.56.09,25.12.06,37.68,0a3.85,3.85,0,0,1,2.43.91A8,8,0,0,1,129.19,8c0,1.81.16,3.62.25,5.51Z"/><path d="M44.87,13.77c-6.24-.21-12.21-.42-18.18-.6-1.31-.05-1.8-.69-1.83-2a7.37,7.37,0,0,1,6.83-7.73,48.5,48.5,0,0,1,7.13-.07,7.12,7.12,0,0,1,6,6.07C45,10.82,44.87,12.2,44.87,13.77Z"/><path d="M103.84,60.25A36.8,36.8,0,0,1,141,97.17c.14,17.75-14.83,36.82-36.94,36.86-22.62,0-37-19.79-37.07-36.35C66.94,75.29,85.73,59.83,103.84,60.25ZM104,75.43V74c0-3.4-.3-3.65-3.65-3.06A26.64,26.64,0,0,0,83.5,80.8a27.1,27.1,0,0,0-5.79,14.61A1.91,1.91,0,0,0,78.23,97a2.82,2.82,0,0,0,4.5-2.12C84,86.53,88.38,80.51,96.17,77.27,98.55,76.28,101.26,76.05,104,75.43Z"/><path class="cls-3" d="M82.73,94.84A2.82,2.82,0,0,1,78.23,97a1.91,1.91,0,0,1-.52-1.55A27.1,27.1,0,0,1,83.5,80.8"/><path class="cls-3" d="M100.35,70.94C103.7,70.35,104,70.6,104,74v1.43"/></g></g></g></svg>