<svg xmlns="http://www.w3.org/2000/svg" viewBox="0 0 553.53 85.02"><defs><style>.cls-1{fill:#fdbc5b;}.cls-2{fill:none;stroke:#bcbec0;stroke-miterlimit:10;stroke-width:6px;}.cls-3{fill:#231f20;}</style></defs><title>Asset 1</title><g id="Layer_2" data-name="Layer 2"><g id="top_fill" data-name="top fill"><path class="cls-1" d="M535.39,80.46A1273.31,1273.31,0,0,0,19,80.46Q30.67,65,43,49.8,26.08,39.93,8.66,30.51a1324.44,1324.44,0,0,1,537.08,0q-16.17,10.43-31.82,21.22Q524.92,66,535.39,80.46Z"/><path class="cls-2" d="M535.39,80.46A1273.31,1273.31,0,0,0,19,80.46Q30.67,65,43,49.8,26.08,39.93,8.66,30.51a1324.44,1324.44,0,0,1,537.08,0q-16.17,10.43-31.82,21.22Q524.92,66,535.39,80.46Z"/><path class="cls-3" d="M228.84,43.54l-3-27.18c2.68-.29,5.36-.57,8-.82a26.73,26.73,0,0,1,7.36.24A14.31,14.31,0,0,1,246.8,18,10.87,10.87,0,0,1,250.38,22a14.29,14.29,0,0,1,1.47,5.85,14.79,14.79,0,0,1-.77,6,11.31,11.31,0,0,1-2.93,4.48,14.56,14.56,0,0,1-4.93,3,25.85,25.85,0,0,1-6.8,1.47C233.89,43,231.37,43.26,228.84,43.54Zm3.77-3.69,3.51-.35c4-.37,7-1.51,8.91-3.47a9.78,9.78,0,0,0,2.59-7.89,9.37,9.37,0,0,0-3.71-7.43c-2.26-1.64-5.52-2.29-9.72-1.9l-3.67.35Q231.56,29.51,232.61,39.85Zm1-1.09q-.93-9.36-1.85-18.73l2.54-.24c3.65-.34,6.56.22,8.69,1.63s3.3,3.69,3.51,6.8-.62,5.52-2.45,7.25-4.5,2.73-8,3.06Zm3.28-3.85A7.44,7.44,0,0,0,241.59,33,5.52,5.52,0,0,0,243,28.47a5.36,5.36,0,0,0-2.09-4.28,7.58,7.58,0,0,0-5.08-1Q236.34,29,236.87,34.91Z"/><path class="cls-3" d="M257.67,32.8a15.27,15.27,0,0,0,1.95.37,15.55,15.55,0,0,0,1.92.25,19.24,19.24,0,0,0,2.15,0c1.28,0,1.91-.52,1.89-1.45A1.57,1.57,0,0,0,265,31a17,17,0,0,0-1.53-1.18c-.62-.43-1.29-.91-2-1.43a14.81,14.81,0,0,1-2-1.81,10.38,10.38,0,0,1-1.61-2.33,7.35,7.35,0,0,1-.73-3,7.43,7.43,0,0,1,.58-3.43,6.74,6.74,0,0,1,1.94-2.54,9.23,9.23,0,0,1,3-1.61,13,13,0,0,1,3.76-.62,18.41,18.41,0,0,1,2.1.06l1.88.15,1.88.21q.06,3.84.1,7.67l-.77-.07-.78-.07q-.43,0-.9,0l-.65,0a4,4,0,0,0-.72.12,1.54,1.54,0,0,0-.6.3.68.68,0,0,0-.24.58c0,.22.2.49.59.81s.87.69,1.44,1.12,1.18.92,1.85,1.48a12.25,12.25,0,0,1,1.85,2,11.14,11.14,0,0,1,1.42,2.49,8.13,8.13,0,0,1,.59,3.11,9.73,9.73,0,0,1-.56,3.39A7.37,7.37,0,0,1,273.06,39,8.65,8.65,0,0,1,270,40.92a13.63,13.63,0,0,1-4.46.78,27.27,27.27,0,0,1-2.9-.05c-.9-.07-1.69-.15-2.38-.26A20.24,20.24,0,0,1,258,41Q257.86,36.89,257.67,32.8Zm3.71,4.77c.38.07.8.12,1.25.16l1.22.11c.43,0,.87,0,1.31,0a9.94,9.94,0,0,0,2.25-.33,5.66,5.66,0,0,0,1.95-.92A4.52,4.52,0,0,0,270.72,35a4.88,4.88,0,0,0,.49-2.36,4.47,4.47,0,0,0-.65-2.25,10.84,10.84,0,0,0-1.59-2,26.5,26.5,0,0,0-2.08-1.84c-.73-.58-1.43-1.17-2.09-1.77A11.06,11.06,0,0,1,263.17,23a3.35,3.35,0,0,1-.69-1.89,2.73,2.73,0,0,1,.92-2.3,5,5,0,0,1,3.17-.89q.35,0,.72,0c.24,0,.48,0,.71.05a5.3,5.3,0,0,0,.69,0c0-.35,0-.71,0-1.06l-.65,0-.67-.05c-.25,0-.5,0-.76,0a6.75,6.75,0,0,0-3.82,1.11,3.47,3.47,0,0,0-1.4,3.19,4,4,0,0,0,.69,2.13,11.43,11.43,0,0,0,1.65,1.91A26.36,26.36,0,0,0,265.8,27q1.11.87,2.07,1.77a10.13,10.13,0,0,1,1.6,1.88,3.81,3.81,0,0,1,.65,2,3.55,3.55,0,0,1-1.3,3,6.09,6.09,0,0,1-3.69,1.11,15.1,15.1,0,0,1-2.58-.12c-.42,0-.82-.1-1.21-.16Z"/><path class="cls-3" d="M282,13.5q4.84,0,9.68.17l-.57,20.17c2.56.07,5.13.16,7.69.28l-.33,7.17c-5.56-.26-11.12-.4-16.69-.45Q281.92,27.17,282,13.5Zm14.3,24.41c0-.33,0-.66,0-1-3.1-.13-6.19-.22-9.29-.28q.2-9.9.38-19.8l-1.12,0L286,37.61Q291.16,37.7,296.34,37.91Z"/><path class="cls-3" d="M306.07,14.29q5,.3,10,.7a17.31,17.31,0,0,1,5.1,1.13,12,12,0,0,1,3.9,2.43,9.34,9.34,0,0,1,2.35,3.6,10.22,10.22,0,0,1,.47,4.65,9,9,0,0,1-1,3.4,10.71,10.71,0,0,1-1.55,2.23,9.15,9.15,0,0,1-2.06,1.6q2.16,4.76,4.23,9.51c-3.41-.37-6.83-.71-10.24-1q-1.76-3.63-3.57-7.25l-.54,6.91q-4.36-.34-8.74-.6Q305.27,27.94,306.07,14.29Zm7.67,18.4a15.72,15.72,0,0,0,3.22-.07q1.71,3.43,3.37,6.89l1.28.12q-1.74-3.63-3.53-7.24a8.13,8.13,0,0,0,3.83-2.06,6.32,6.32,0,0,0,1.75-4,6.45,6.45,0,0,0-.42-3.21,6.54,6.54,0,0,0-1.78-2.46A8.93,8.93,0,0,0,318.59,19a14.09,14.09,0,0,0-3.72-.78l-4.67-.34q-.7,10.36-1.4,20.74l1.07.07c.15-2.07.29-4.14.44-6.21Zm-3.36-1.23q.44-6.29.88-12.56l3.54.26a10,10,0,0,1,6,2.15,5.43,5.43,0,0,1,1.77,4.86A5.48,5.48,0,0,1,320,30.6a10,10,0,0,1-6.13,1.11Zm3.92-3.13.46,0a5.12,5.12,0,0,0,2.79-.47,2.54,2.54,0,0,0,1.32-2.23,2.51,2.51,0,0,0-.93-2.43,5.2,5.2,0,0,0-2.7-.92l-.47,0Q314.53,25.31,314.3,28.33Z"/></g>

</g>

<style type="text/css">

       .cls-1,.cls-2
		{
        	animation: rest 2.5s ease;
		}

		@keyframes rest {
        0%,
	    30% {
		opacity: 0;
        transform: scaley(0.78);
	    }
	    70%,
        92.8% {
		    opacity: 1;
            transform: scaley(1);
	    }
        93%,
        100% {
		opacity: 0;
        transform: scaley(0.78);
	    }
        }
</style>

</svg>