<svg xmlns="http://www.w3.org/2000/svg" viewBox="0 0 553.53 85.02"><defs><style>.cls-1{fill:#fdbc5b;}.cls-2{fill:none;stroke:#bcbec0;stroke-miterlimit:10;stroke-width:6px;}.cls-3{fill:#231f20;}</style></defs><title>Asset 2</title><g id="Layer_2" data-name="Layer 2"><g id="top_fill" data-name="top fill"><path class="cls-1" d="M535.39,80.46A1273.31,1273.31,0,0,0,19,80.46Q30.67,65,43,49.8,26.08,39.93,8.66,30.51a1324.44,1324.44,0,0,1,537.08,0q-16.17,10.43-31.82,21.22Q524.92,66,535.39,80.46Z"/><path class="cls-2" d="M535.39,80.46A1273.31,1273.31,0,0,0,19,80.46Q30.67,65,43,49.8,26.08,39.93,8.66,30.51a1324.44,1324.44,0,0,1,537.08,0q-16.17,10.43-31.82,21.22Q524.92,66,535.39,80.46Z"/><path class="cls-3" d="M149.52,23.89q3.76-.59,7.53-1.14,4.51,4.65,8.93,9.34,2.93-5.7,5.92-11.38c2.52-.32,5-.64,7.55-.94q1.7,13.58,3.4,27.15-4.42.53-8.84,1.1-.66-4.87-1.33-9.75-2.3,4.44-4.54,8.89-3.42-3.67-6.9-7.32c.49,3.25,1,6.49,1.46,9.74-2.94.42-5.87.86-8.81,1.32Q151.72,37.39,149.52,23.89Zm9.08,23q-1.44-9.3-2.89-18.6,5.79,5.89,11.43,11.87,3.72-7.26,7.59-14.49l2.46,18.67,1.08-.14q-1.34-10.31-2.68-20.62l-1.11.14Q170.59,31,166.87,38.3q-5.66-6-11.46-12l-1.11.17q1.62,10.27,3.22,20.54Z"/><path class="cls-3" d="M187.18,18.88c3.23-.36,6.47-.7,9.7-1q1.43,13.61,2.84,27.21-4.71.46-9.4,1Q188.75,32.46,187.18,18.88Zm8,23.34q-1.12-10.33-2.26-20.67l-1.11.12Q193,32,194.12,42.34Z"/><path class="cls-3" d="M204.62,17.11q4.95-.45,9.9-.84a17.39,17.39,0,0,1,5.15.3,11.79,11.79,0,0,1,4.21,1.75,9.48,9.48,0,0,1,2.92,3.15,10.43,10.43,0,0,1,1.27,4.5,9.18,9.18,0,0,1-.36,3.52A10.45,10.45,0,0,1,226.56,32a9.08,9.08,0,0,1-1.77,1.93q3,4.31,5.86,8.65-5.21.33-10.41.72c-1.57-2.2-3.16-4.39-4.75-6.58.19,2.3.39,4.61.58,6.91-3,.24-5.91.49-8.87.76Zm10.45,17a16.58,16.58,0,0,0,3.17-.58q2.26,3.1,4.5,6.24l1.3-.1c-1.57-2.19-3.14-4.37-4.73-6.56a7.91,7.91,0,0,0,3.45-2.66,6.35,6.35,0,0,0,1.05-4.28,6.59,6.59,0,0,0-1-3.1A6.73,6.73,0,0,0,220.7,21a9,9,0,0,0-3.09-1.16,13.69,13.69,0,0,0-3.77-.18q-2.31.18-4.62.39.93,10.35,1.85,20.7l1.09-.09c-.18-2.07-.37-4.14-.55-6.21Zm-3.55-.7q-.54-6.27-1.1-12.54l3.51-.29a10,10,0,0,1,6.23,1.16,5.48,5.48,0,0,1,2.54,4.5,5.43,5.43,0,0,1-1.83,4.8A10,10,0,0,1,215,33.13Zm3.39-3.69.47,0a5.15,5.15,0,0,0,2.67-.91,2.53,2.53,0,0,0,.94-2.42,2.52,2.52,0,0,0-1.31-2.24,5.09,5.09,0,0,0-2.81-.48l-.47,0Z"/><path class="cls-3" d="M234.46,14.9q4.95-.28,9.91-.51a17.47,17.47,0,0,1,5.14.47,12.11,12.11,0,0,1,4.14,1.9,9.25,9.25,0,0,1,2.8,3.25,10.35,10.35,0,0,1,1.12,4.54,9.09,9.09,0,0,1-.49,3.5,10.49,10.49,0,0,1-1.23,2.42A9.29,9.29,0,0,1,254,32.34q2.8,4.41,5.55,8.84c-3.48.1-7,.23-10.44.37q-2.24-3.37-4.51-6.73.18,3.45.34,6.92-4.44.21-8.89.46Q235.27,28.55,234.46,14.9Zm9.83,17.35a15.26,15.26,0,0,0,3.19-.48c1.44,2.13,2.86,4.26,4.28,6.39l1.29,0c-1.48-2.24-3-4.48-4.48-6.71a8.13,8.13,0,0,0,3.54-2.54,6.31,6.31,0,0,0,1.19-4.25,6.5,6.5,0,0,0-.84-3.13,6.72,6.72,0,0,0-2.08-2.2,9.16,9.16,0,0,0-3-1.27,13.83,13.83,0,0,0-3.76-.3l-4.64.23q.57,10.38,1.13,20.76l1.09-.06-.33-6.22Zm-3.51-.82q-.34-6.29-.67-12.57l3.52-.17a10,10,0,0,1,6.18,1.37,5.51,5.51,0,0,1,2.39,4.59,5.48,5.48,0,0,1-2,4.73,10,10,0,0,1-6,1.88Zm3.51-3.58.46,0a5.11,5.11,0,0,0,2.71-.82,2.51,2.51,0,0,0,1-2.38,2.52,2.52,0,0,0-1.23-2.29,5.14,5.14,0,0,0-2.79-.57l-.47,0Z"/><path class="cls-3" d="M264,27.4a13.32,13.32,0,0,1,1-5.6,14.39,14.39,0,0,1,3.11-4.64A15.15,15.15,0,0,1,272.93,14a15.53,15.53,0,0,1,11.73-.08A14.85,14.85,0,0,1,289.45,17a14.32,14.32,0,0,1,3.18,4.59,13.43,13.43,0,0,1,1.12,5.59,14,14,0,0,1-1.22,5.56,14.71,14.71,0,0,1-3.19,4.55,15.38,15.38,0,0,1-4.68,3.07A15,15,0,0,1,265.33,33,13.61,13.61,0,0,1,264,27.4Zm4-.08a10,10,0,0,0,.93,4.06,10.69,10.69,0,0,0,2.37,3.3,11.06,11.06,0,0,0,3.46,2.21,11.17,11.17,0,0,0,8.35-.06,11,11,0,0,0,3.42-2.25,10.72,10.72,0,0,0,2.34-3.34,9.94,9.94,0,0,0,.87-4.07,10.07,10.07,0,0,0-.83-4.09,10.76,10.76,0,0,0-2.34-3.35,11.08,11.08,0,0,0-7.78-3.05,11.09,11.09,0,0,0-7.73,3.16,10.59,10.59,0,0,0-2.29,3.38A9.92,9.92,0,0,0,268,27.32ZM279,36.6a9.6,9.6,0,0,1-3.76-.7,10,10,0,0,1-3.1-2A9.67,9.67,0,0,1,270,31a9.19,9.19,0,0,1-.13-7.34,9.35,9.35,0,0,1,2.07-3,9.91,9.91,0,0,1,6.93-2.85,9.85,9.85,0,0,1,7,2.75,9.43,9.43,0,0,1,2.11,3,8.71,8.71,0,0,1,.75,3.67,8.85,8.85,0,0,1-.78,3.67,9.77,9.77,0,0,1-2.09,3,10.14,10.14,0,0,1-3.07,2A9.74,9.74,0,0,1,279,36.6Zm-6-9.37a5.39,5.39,0,0,0,.5,2.23,5.74,5.74,0,0,0,1.29,1.81,5.87,5.87,0,0,0,1.9,1.21,6.14,6.14,0,0,0,4.59,0,5.86,5.86,0,0,0,1.88-1.24,5.66,5.66,0,0,0,1.26-1.82,5.55,5.55,0,0,0,0-4.47,5.6,5.6,0,0,0-1.28-1.82,6,6,0,0,0-1.9-1.23,6.11,6.11,0,0,0-6.55,1.28A5.82,5.82,0,0,0,273.38,25,5.49,5.49,0,0,0,272.94,27.23Z"/><path class="cls-3" d="M301,13.61q5,.09,9.92.24a17.44,17.44,0,0,1,5.09.86,11.71,11.71,0,0,1,4,2.2,9.34,9.34,0,0,1,2.54,3.45A10.34,10.34,0,0,1,323.3,25a9.26,9.26,0,0,1-.76,3.46,10.87,10.87,0,0,1-1.42,2.32,9.12,9.12,0,0,1-2,1.72c1.63,3.08,3.25,6.15,4.84,9.24-3.48-.16-6.95-.3-10.43-.42-1.31-2.35-2.64-4.71-4-7.06l-.21,6.93c-3-.08-5.93-.16-8.89-.21Q300.75,27.28,301,13.61Zm8.45,18a16.4,16.4,0,0,0,3.22-.23q1.89,3.34,3.76,6.69l1.3,0c-1.31-2.35-2.63-4.69-3.95-7a8,8,0,0,0,3.72-2.26A6.35,6.35,0,0,0,319,24.71a6.52,6.52,0,0,0-.6-3.18,6.65,6.65,0,0,0-1.9-2.35,9.11,9.11,0,0,0-2.93-1.5,14.07,14.07,0,0,0-3.72-.58L305.25,17l-.51,20.78,1.09,0q.09-3.11.16-6.23ZM306,30.57q.15-6.29.32-12.58l3.52.09a9.94,9.94,0,0,1,6.05,1.84,5.44,5.44,0,0,1,2,4.75,5.48,5.48,0,0,1-2.36,4.57,10,10,0,0,1-6.09,1.42Zm3.78-3.3h.47a5.17,5.17,0,0,0,2.76-.61,2.53,2.53,0,0,0,1.2-2.3A2.51,2.51,0,0,0,313.18,22a5.1,5.1,0,0,0-2.73-.78l-.47,0Z"/><path class="cls-3" d="M330.9,14.67c3.19.16,6.38.35,9.56.55l-1.32,20.13c2.58.16,5.16.34,7.74.52L346.34,43q-8.46-.62-16.93-1.06Q330.16,28.32,330.9,14.67Zm13.34,24.92c0-.33.05-.65.08-1q-4.69-.33-9.39-.6l1.2-19.77L335,18.17l-1.23,20.76Q339,39.23,344.24,39.59Z"/><path class="cls-3" d="M354.63,16.23q8.46.66,16.9,1.5c-.24,2.38-.49,4.76-.73,7.14-2.56-.25-5.11-.49-7.67-.72-.1,1-.19,2-.29,3q3.77.33,7.52.71l-.69,6.77c-2.49-.25-5-.48-7.46-.7-.1,1-.19,2.09-.29,3.14,2.62.24,5.23.48,7.85.74-.25,2.38-.49,4.76-.74,7.14q-8.31-.82-16.65-1.48Zm11.65,25.18.09-1Q362.2,40,358,39.67c.26-3,.53-6,.79-9,2.68.23,5.36.48,8,.73l.09-1c-2.68-.25-5.36-.5-8-.73l.78-8.82c2.86.25,5.71.5,8.56.78,0-.33.07-.66.1-1-3.23-.31-6.45-.6-9.68-.87q-.91,10.35-1.82,20.71C360,40.82,363.13,41.11,366.28,41.41Z"/><path class="cls-3" d="M376.29,37.18a13.43,13.43,0,0,0,1.88.66,15.3,15.3,0,0,0,1.87.53,17.09,17.09,0,0,0,2.14.37c1.29.15,2-.24,2.1-1.16a1.53,1.53,0,0,0-.46-1.15A16.86,16.86,0,0,0,382.47,35c-.55-.52-1.14-1.09-1.76-1.71A13.17,13.17,0,0,1,379,31.24a9.82,9.82,0,0,1-1.24-2.54,7.31,7.31,0,0,1-.25-3.1,7.51,7.51,0,0,1,1.1-3.31,6.75,6.75,0,0,1,2.29-2.22,9,9,0,0,1,3.19-1.15,13.2,13.2,0,0,1,3.78-.09c.69.09,1.37.2,2,.35l1.82.41c.62.15,1.22.31,1.81.47-.33,2.53-.65,5.07-1,7.6l-.76-.17-.75-.18c-.28-.06-.58-.11-.89-.15s-.38,0-.64-.05a4.4,4.4,0,0,0-.73,0,1.44,1.44,0,0,0-.63.22.67.67,0,0,0-.33.53c0,.22.13.52.47.89s.76.8,1.26,1.31,1,1.07,1.63,1.72A11.94,11.94,0,0,1,392.74,34a11.47,11.47,0,0,1,1.07,2.66,8.25,8.25,0,0,1,.15,3.16,9.62,9.62,0,0,1-1,3.28,7.4,7.4,0,0,1-2.16,2.5A8.89,8.89,0,0,1,387.39,47a14.08,14.08,0,0,1-4.6.14,27.6,27.6,0,0,1-2.91-.48c-.89-.19-1.67-.4-2.35-.61a20.78,20.78,0,0,1-2.15-.72C375.68,42.62,376,39.9,376.29,37.18Zm3,5.27c.38.13.79.24,1.23.35s.79.19,1.21.28.86.16,1.31.21a9.83,9.83,0,0,0,2.3,0,5.8,5.8,0,0,0,2.09-.64,4.48,4.48,0,0,0,1.6-1.4,4.87,4.87,0,0,0,.82-2.27,4.48,4.48,0,0,0-.32-2.31,10.07,10.07,0,0,0-1.31-2.23,25,25,0,0,0-1.79-2.11c-.65-.68-1.25-1.36-1.81-2a11.41,11.41,0,0,1-1.35-2,3.32,3.32,0,0,1-.39-2,2.73,2.73,0,0,1,1.24-2.15,5,5,0,0,1,3.26-.43l.7.1c.24.05.47.09.7.15s.44.09.67.12c0-.35.09-.71.13-1.06a4.07,4.07,0,0,1-.63-.12l-.66-.14-.74-.1a6.66,6.66,0,0,0-3.92.56,3.49,3.49,0,0,0-1.86,2.94,3.94,3.94,0,0,0,.37,2.21,11.29,11.29,0,0,0,1.33,2.13c.56.71,1.17,1.41,1.81,2.09s1.25,1.36,1.81,2a10.61,10.61,0,0,1,1.32,2.08,3.83,3.83,0,0,1,.35,2.11,3.51,3.51,0,0,1-1.73,2.8,6.16,6.16,0,0,1-3.86.58,14.83,14.83,0,0,1-2.57-.5c-.41-.1-.81-.21-1.19-.33Z"/><path class="cls-3" d="M399.77,40a14.78,14.78,0,0,0,1.87.71,15.63,15.63,0,0,0,1.85.59,21.3,21.3,0,0,0,2.14.42q1.92.27,2.13-1.11a1.55,1.55,0,0,0-.43-1.16A17.07,17.07,0,0,0,406,38c-.54-.54-1.11-1.12-1.72-1.76a14.43,14.43,0,0,1-1.67-2.13,10,10,0,0,1-1.16-2.58,7.4,7.4,0,0,1-.17-3.11,7.62,7.62,0,0,1,1.2-3.27A6.84,6.84,0,0,1,404.85,23,9.25,9.25,0,0,1,408.08,22a13.32,13.32,0,0,1,3.78,0,19.87,19.87,0,0,1,2,.4l1.81.46c.62.17,1.22.34,1.81.52-.41,2.52-.81,5.05-1.21,7.57l-.75-.2-.75-.19a7.62,7.62,0,0,0-.88-.17l-.64-.08a4.57,4.57,0,0,0-.74,0,1.5,1.5,0,0,0-.63.19.68.68,0,0,0-.34.53c0,.22.11.52.44.9s.74.83,1.22,1.34,1,1.1,1.58,1.77a11.84,11.84,0,0,1,1.5,2.22,11.24,11.24,0,0,1,1,2.68,8.18,8.18,0,0,1,.07,3.17,9.71,9.71,0,0,1-1.12,3.25A7.47,7.47,0,0,1,414,48.79a9.08,9.08,0,0,1-3.42,1.35,13.9,13.9,0,0,1-4.61,0,28.67,28.67,0,0,1-2.89-.55c-.89-.23-1.67-.45-2.34-.68a21.25,21.25,0,0,1-2.12-.78Q399.2,44.08,399.77,40Zm2.82,5.35c.37.14.78.26,1.22.38s.78.21,1.2.31a11.06,11.06,0,0,0,1.3.25,10,10,0,0,0,2.31.06,5.65,5.65,0,0,0,2.1-.58,4.65,4.65,0,0,0,1.64-1.35,4.89,4.89,0,0,0,.89-2.25,4.5,4.5,0,0,0-.26-2.32,10.29,10.29,0,0,0-1.24-2.26A26.82,26.82,0,0,0,410,35.44c-.63-.7-1.21-1.4-1.75-2.1a11,11,0,0,1-1.3-2.05,3.38,3.38,0,0,1-.34-2,2.78,2.78,0,0,1,1.31-2.11,5,5,0,0,1,3.27-.34l.7.12.69.16a5.12,5.12,0,0,0,.68.14c.05-.35.11-.7.16-1.05a5.56,5.56,0,0,1-.63-.14l-.65-.15c-.24-.05-.49-.1-.75-.13a6.71,6.71,0,0,0-3.94.45,3.51,3.51,0,0,0-1.94,2.9,3.94,3.94,0,0,0,.31,2.21,10.64,10.64,0,0,0,1.27,2.17c.54.73,1.13,1.44,1.75,2.14s1.21,1.39,1.75,2.09a10.46,10.46,0,0,1,1.26,2.12,3.81,3.81,0,0,1,.29,2.11,3.54,3.54,0,0,1-1.81,2.76,6.22,6.22,0,0,1-3.88.48,16.1,16.1,0,0,1-2.55-.57c-.41-.11-.8-.24-1.18-.37Z"/></g>
</g>

<style type="text/css">

       .cls-1,.cls-2
		{
        	animation: rest 2.5s ease;
		}

		@keyframes rest {
        0%,
	    30% {
		opacity: 0;
        transform: scaley(0.78);
	    }
	    70%,
        92.8% {
		    opacity: 1;
            transform: scaley(1);
	    }
        93%,
        100% {
		opacity: 0;
        transform: scaley(0.78);
	    }
        }
</style>

</svg>