<svg xmlns="http://www.w3.org/2000/svg" viewBox="0 0 553.53 85.02"><defs><style>.cls-1{fill:#fdbc5b;}.cls-2{fill:none;stroke:#bcbec0;stroke-miterlimit:10;stroke-width:6px;}.cls-3{fill:#231f20;}</style></defs><title>Asset 3</title><g id="Layer_2" data-name="Layer 2"><g id="top_fill" data-name="top fill"><path class="cls-1" d="M535.39,80.46A1273.31,1273.31,0,0,0,19,80.46Q30.67,65,43,49.8,26.08,39.93,8.66,30.51a1324.44,1324.44,0,0,1,537.08,0q-16.17,10.43-31.82,21.22Q524.92,66,535.39,80.46Z"/><path class="cls-2" d="M535.39,80.46A1273.31,1273.31,0,0,0,19,80.46Q30.67,65,43,49.8,26.08,39.93,8.66,30.51a1324.44,1324.44,0,0,1,537.08,0q-16.17,10.43-31.82,21.22Q524.92,66,535.39,80.46Z"/><path class="cls-3" d="M188.37,31.1A10.4,10.4,0,0,1,188,36a8.67,8.67,0,0,1-2.33,3.54,12.39,12.39,0,0,1-3.83,2.33,21.62,21.62,0,0,1-4.92,1.26l1,6.45q-4.42.63-8.83,1.31-2.18-13.5-4.37-27c3-.47,6.11-.93,9.17-1.36a22.09,22.09,0,0,1,5.23-.15,12.55,12.55,0,0,1,4.43,1.24,8.72,8.72,0,0,1,3.24,2.83A10.4,10.4,0,0,1,188.37,31.1Zm-4.13.53a7.31,7.31,0,0,0-1.09-3.09A6.06,6.06,0,0,0,181,26.59a8.59,8.59,0,0,0-3-.89,14.51,14.51,0,0,0-3.65.07l-4.84.71q1.6,10.27,3.2,20.55l1.08-.16-1-6.45,3.66-.53a14.29,14.29,0,0,0,3.45-.91,8.7,8.7,0,0,0,2.62-1.66A5.82,5.82,0,0,0,184,34.88,7.05,7.05,0,0,0,184.24,31.63Zm-1.19.15a6.21,6.21,0,0,1-.23,3,5.18,5.18,0,0,1-1.43,2.1,7.44,7.44,0,0,1-2.29,1.32,13.27,13.27,0,0,1-2.84.71l-3.66.53q-.94-6.08-1.88-12.16l3.73-.54a13.68,13.68,0,0,1,3-.11,7.37,7.37,0,0,1,2.6.66,5.11,5.11,0,0,1,2,1.64A6.22,6.22,0,0,1,183.05,31.78Zm-7.25,4.06.38-.06a3.54,3.54,0,0,0,2.45-1.15,3.08,3.08,0,0,0,.47-2.32,3,3,0,0,0-1.11-2.1,3.55,3.55,0,0,0-2.7-.43l-.38,0Q175.36,32.83,175.8,35.84Z"/><path class="cls-3" d="M194.94,33.62a13.24,13.24,0,0,1,.5-5.68,14.14,14.14,0,0,1,2.69-4.9,15,15,0,0,1,4.46-3.57,15.84,15.84,0,0,1,11.77-1.12A15,15,0,0,1,219.45,21a14.15,14.15,0,0,1,3.6,4.31,13.37,13.37,0,0,1,1.62,5.47,13.56,13.56,0,0,1-.73,5.64,14.5,14.5,0,0,1-2.78,4.81,15.13,15.13,0,0,1-4.39,3.46,15.23,15.23,0,0,1-11.34,1.08,15.14,15.14,0,0,1-5-2.56A14.84,14.84,0,0,1,196.76,39,13.57,13.57,0,0,1,194.94,33.62Zm4-.45a10.19,10.19,0,0,0,1.31,4,11,11,0,0,0,2.69,3.07,11.18,11.18,0,0,0,3.66,1.89,11,11,0,0,0,4.25.4,10.85,10.85,0,0,0,4.09-1.2,11.15,11.15,0,0,0,3.22-2.54,10.88,10.88,0,0,0,2-3.53,10,10,0,0,0,.5-4.13,9.76,9.76,0,0,0-1.2-4A10.62,10.62,0,0,0,216.83,24,11,11,0,0,0,213.11,22a11.31,11.31,0,0,0-4.36-.42,11.14,11.14,0,0,0-7.46,3.84,10.23,10.23,0,0,0-2,3.58A9.79,9.79,0,0,0,198.92,33.17Zm11.8,8.26a9.72,9.72,0,0,1-3.82-.36,10.07,10.07,0,0,1-3.28-1.71,9.65,9.65,0,0,1-2.42-2.75A8.81,8.81,0,0,1,200,33a8.64,8.64,0,0,1,.35-3.73,9.52,9.52,0,0,1,1.78-3.2,9.92,9.92,0,0,1,6.69-3.45,9.88,9.88,0,0,1,3.93.38,10,10,0,0,1,3.32,1.74,9.45,9.45,0,0,1,2.38,2.81,9.21,9.21,0,0,1,.64,7.31,9.72,9.72,0,0,1-1.83,3.16,10.22,10.22,0,0,1-2.88,2.29A9.83,9.83,0,0,1,210.72,41.43Zm-6.87-8.79a5.39,5.39,0,0,0,.7,2.17A5.87,5.87,0,0,0,208,37.53a5.88,5.88,0,0,0,2.34.23,5.94,5.94,0,0,0,2.25-.67,5.74,5.74,0,0,0,1.76-1.39,5.9,5.9,0,0,0,1.11-1.93,5.57,5.57,0,0,0,.26-2.27,5.44,5.44,0,0,0-.67-2.18,5.68,5.68,0,0,0-1.45-1.7,6.08,6.08,0,0,0-4.4-1.29,6.1,6.1,0,0,0-2.29.68,6,6,0,0,0-1.77,1.41,5.67,5.67,0,0,0-1.09,1.95A5.23,5.23,0,0,0,203.85,32.64Z"/><path class="cls-3" d="M230.75,16.62q4.81-.32,9.64-.57l1.11,20.14q3.88-.21,7.76-.37c.11,2.39.21,4.78.32,7.17q-8.49.36-17,.91Q231.69,30.27,230.75,16.62Zm16.33,23.19c0-.32,0-.65,0-1-3.14.14-6.28.31-9.42.49l-1.2-19.77-1.12.07,1.29,20.75Q241.84,40.05,247.08,39.81Z"/><path class="cls-3" d="M263.28,15.18q3.47-.07,7-.12,5.68,13.59,11,27.28c-2.93,0-5.86,0-8.78,0-.32-.82-.64-1.63-1-2.45q-4.24.06-8.48.15c-.29.83-.57,1.66-.86,2.48-2.93.08-5.85.17-8.78.28Q258.09,29,263.28,15.18Zm-3.81,24.17.74-2.07q7-.18,13.91-.25l.81,2h1.18Q272,28.69,267.63,18.38l-1.64,0q-4,10.47-7.69,21Zm7.36-20q3.53,8.32,6.9,16.68-6.59.06-13.17.24Q263.62,27.82,266.83,19.37ZM269,33.94l-2-4.77q-.91,2.41-1.82,4.83Z"/><path class="cls-3" d="M286.66,15q5,0,10,.14a18.12,18.12,0,0,1,5.13.83,12.11,12.11,0,0,1,4,2.18,9.26,9.26,0,0,1,2.57,3.43,10.18,10.18,0,0,1,.79,4.61,9.36,9.36,0,0,1-.74,3.46A11,11,0,0,1,307,32a9.22,9.22,0,0,1-2,1.74q2.49,4.59,4.91,9.21-5.23-.21-10.45-.35-2-3.53-4-7l-.15,6.93q-4.44-.09-8.9-.13Zm8.66,18a16.51,16.51,0,0,0,3.23-.26c1.28,2.22,2.56,4.44,3.82,6.67l1.3,0q-2-3.51-4-7a8.09,8.09,0,0,0,3.72-2.29A6.31,6.31,0,0,0,304.89,26a6.63,6.63,0,0,0-.62-3.18,6.87,6.87,0,0,0-1.93-2.33,9,9,0,0,0-3-1.48,14.18,14.18,0,0,0-3.75-.56L291,18.34l-.3,20.79h1.09c0-2.07.07-4.15.1-6.23Zm-3.46-1q.11-6.3.2-12.59l3.54.07a10,10,0,0,1,6.11,1.79,5.44,5.44,0,0,1,2.07,4.74,5.45,5.45,0,0,1-2.35,4.58A10.12,10.12,0,0,1,295.34,32Zm3.76-3.34h.47a5.1,5.1,0,0,0,2.77-.63,2.52,2.52,0,0,0,1.2-2.31A2.5,2.5,0,0,0,299,23.3a5.11,5.11,0,0,0-2.75-.76h-.48Q295.69,25.56,295.62,28.59Z"/><path class="cls-3" d="M315.43,29.51A13.39,13.39,0,0,1,316.89,24a14.08,14.08,0,0,1,3.47-4.4,15.16,15.16,0,0,1,5-2.8,15.71,15.71,0,0,1,11.79.8A15.15,15.15,0,0,1,341.73,21a14.12,14.12,0,0,1,2.82,4.83,13.28,13.28,0,0,1,.67,5.65A13.74,13.74,0,0,1,343.56,37,15,15,0,0,1,340,41.27a15.33,15.33,0,0,1-4.91,2.7,15.31,15.31,0,0,1-11.36-.77,15,15,0,0,1-4.49-3.34,14.68,14.68,0,0,1-2.92-4.72A13.88,13.88,0,0,1,315.43,29.51Zm4,.2a10,10,0,0,0,.62,4.12,10.76,10.76,0,0,0,2.13,3.47,11,11,0,0,0,3.29,2.45,11.26,11.26,0,0,0,8.35.57,11.25,11.25,0,0,0,3.61-2A10.82,10.82,0,0,0,340,35.18a10.07,10.07,0,0,0,1.2-4,9.87,9.87,0,0,0-.51-4.13,10.29,10.29,0,0,0-2.08-3.52,11.29,11.29,0,0,0-15.57-1.05,10.47,10.47,0,0,0-2.55,3.21A9.81,9.81,0,0,0,319.44,29.71Zm10.24,10.07a9.8,9.8,0,0,1-3.72-1A9.92,9.92,0,0,1,323,36.58a9.48,9.48,0,0,1-1.92-3.1,8.84,8.84,0,0,1-.55-3.71,8.7,8.7,0,0,1,1-3.62,9.68,9.68,0,0,1,2.3-2.87,10.1,10.1,0,0,1,3.27-1.83A10,10,0,0,1,331,21a9.92,9.92,0,0,1,6.78,3.27,9.27,9.27,0,0,1,1.88,3.15,8.7,8.7,0,0,1,.46,3.71,8.93,8.93,0,0,1-1.07,3.6,9.76,9.76,0,0,1-2.33,2.82,9.92,9.92,0,0,1-3.23,1.79A9.67,9.67,0,0,1,329.68,39.78ZM324.38,30a5.38,5.38,0,0,0,.33,2.26,5.76,5.76,0,0,0,1.15,1.9,6,6,0,0,0,1.8,1.34,5.84,5.84,0,0,0,2.27.6,5.9,5.9,0,0,0,2.34-.29,5.83,5.83,0,0,0,2-1.09A5.73,5.73,0,0,0,335.65,33a5.3,5.3,0,0,0,.64-2.2,5.21,5.21,0,0,0-.29-2.26,5.68,5.68,0,0,0-1.14-1.91,6.17,6.17,0,0,0-6.49-1.68,6,6,0,0,0-2,1.11A5.63,5.63,0,0,0,325,27.79,5.36,5.36,0,0,0,324.38,30Z"/><path class="cls-3" d="M353.62,18.55q4.89.46,9.78,1-1.57,13.59-3.13,27.18-4.71-.52-9.41-1ZM356.46,43q1.13-10.33,2.26-20.67l-1.12-.12q-1.12,10.34-2.23,20.67Z"/><path class="cls-3" d="M367.75,47.6q1.71-13.58,3.43-27.14c2.66.32,5.33.66,8,1a27.14,27.14,0,0,1,7.1,1.84,14.46,14.46,0,0,1,4.94,3.33,11,11,0,0,1,2.62,4.73,14.33,14.33,0,0,1,.17,6A14.73,14.73,0,0,1,392,43.07a11.34,11.34,0,0,1-3.89,3.75,14.72,14.72,0,0,1-5.55,1.83,26.39,26.39,0,0,1-7.08-.08C372.87,48.24,370.31,47.91,367.75,47.6Zm4.59-2.74,3.54.46c4.06.54,7.25.07,9.6-1.43a9.75,9.75,0,0,0,4.3-7.14,9.37,9.37,0,0,0-2-8c-1.85-2.09-4.88-3.43-9.06-4l-3.65-.47Zm1.21-.83q1.24-9.33,2.5-18.66c.85.1,1.69.21,2.53.33,3.64.47,6.35,1.65,8.12,3.49s2.42,4.31,1.94,7.39-1.82,5.26-4,6.55-5.06,1.68-8.59,1.22Zm4.12-3a7.56,7.56,0,0,0,5.08-.78,5.51,5.51,0,0,0,2.38-4.16A5.33,5.33,0,0,0,384,31.44a7.62,7.62,0,0,0-4.74-2.09Q378.49,35.17,377.67,41Z"/></g>
</g>

<style type="text/css">

       .cls-1,.cls-2
		{
        	animation: rest 2.5s ease;
		}

		@keyframes rest {
        0%,
	    30% {
		opacity: 0;
        transform: scaley(0.78);
	    }
	    70%,
        92.8% {
		    opacity: 1;
            transform: scaley(1);
	    }
        93%,
        100% {
		opacity: 0;
        transform: scaley(0.78);
	    }
        }
</style>


</svg>