<svg xmlns="http://www.w3.org/2000/svg" viewBox="0 0 84.41 45.19"><defs><style>.cls-1{fill:#af8c74;}</style></defs><title>Asset 3</title><g id="Layer_2" data-name="Layer 2"><g id="Adam_Goarley_Logo" data-name="Adam Goarley Logo"><path class="cls-1" d="M42.3,38.4A25.06,25.06,0,0,1,44,36.34Q61.36,18.91,78.77,1.5c1-1,2.08-1.93,3.69-1.26A2.9,2.9,0,0,1,83.77,4.8a11.57,11.57,0,0,1-1.18,1.25L44.92,43.73c-1.93,1.93-3.43,2-5.39,0Q20.42,24.64,1.32,5.52C-.25,4-.42,2.27.8,1s3-1.31,4.67.37q17.07,17,34.1,33.93C40.42,36.13,41.16,37.1,42.3,38.4Z"/></g></g></svg>